<?xml version="1.0" encoding="UTF-8"?>
<svg width="120" height="120" viewBox="0 0 120 120" fill="none" xmlns="http://www.w3.org/2000/svg">
    <!-- Main palette shape -->
    <path d="M60 10C32.4 10 10 32.4 10 60C10 87.6 32.4 110 60 110C65.5 110 70 105.5 70 100C70 97.4 69 95 67.3 93.2C65.7 91.5 64.7 89.1 64.7 86.5C64.7 81 69.2 76.5 74.7 76.5H90C101.1 76.5 110 67.6 110 56.5C110 30.7 87.3 10 60 10Z" fill="#8D6E63"/>
    
    <!-- Color dots -->
    <circle cx="35" cy="45" r="8" fill="#D4AF37"/>
    <circle cx="55" cy="35" r="8" fill="#5D4037"/>
    <circle cx="75" cy="45" r="8" fill="#3E2723"/>
    <circle cx="85" cy="65" r="8" fill="#A1887F"/>
    <circle cx="35" cy="75" r="8" fill="#EFEBE9"/>
    
    <!-- Thumb hole -->
    <circle cx="74.7" cy="86.5" r="5" fill="#3E2723"/>
</svg> 