<svg width="24" height="24" viewBox="0 0 24 24" fill="none" xmlns="http://www.w3.org/2000/svg">
<path d="M2.55175 1.39661C2.53294 1.39633 2.51412 1.39652 2.49531 1.39718C2.27556 1.40453 2.12434 1.47846 2.02127 1.58153C1.88383 1.71897 1.79814 1.94196 1.85308 2.29896C1.90811 2.65596 2.11947 3.13118 2.56895 3.65557C5.75148 7.36854 8.80028 10.9474 11.18 13.5917C11.7553 14.2308 12.2906 14.8141 12.7796 15.3323C13.3466 13.8369 14.4001 12.7943 15.7282 12.2988C15.2208 11.8207 14.653 11.2998 14.0314 10.7403C11.3873 8.36055 7.80831 5.31166 4.09539 2.12913C3.57105 1.6796 3.09578 1.46828 2.73878 1.41325C2.67688 1.40355 2.61439 1.39799 2.55175 1.39661ZM20.135 1.4455C20.1205 1.44535 20.1069 1.44571 20.094 1.44658C19.9903 1.45347 19.9374 1.47724 19.8795 1.53522L18.5867 2.82803L21.1721 5.41338L22.4648 4.12057C22.5228 4.06263 22.5466 4.00985 22.5534 3.90616C22.5604 3.80257 22.5361 3.65144 22.4688 3.4766C22.3343 3.12691 22.034 2.69533 21.6694 2.33074C21.3048 1.96614 20.8732 1.66582 20.5235 1.53128C20.3705 1.47246 20.2358 1.44644 20.1351 1.4455H20.135ZM17.9901 3.42457L17.526 3.88868L17.9901 4.35264L18.5867 4.94932L19.0507 5.41329L19.6474 6.00996L20.1114 6.47402L20.5754 6.00996L17.9901 3.42457ZM16.9294 4.48525L12.8331 8.58166L13.3237 9.0191L17.3935 4.94932L16.9294 4.48525ZM17.9901 5.54599L13.9545 9.58146L14.4452 10.0188L18.4541 6.00996L17.9901 5.54599ZM19.0508 6.60649L15.076 10.5813L15.5668 11.0187L19.5149 7.0706L19.0509 6.60653H19.0508V6.60649ZM9.02627 12.3885L3.40609 18.0088L3.87006 18.4728L9.46422 12.8786L9.02627 12.3885ZM16.4166 12.9579C14.9887 13.3154 13.921 14.3259 13.435 16.015C13.6999 16.2862 13.9485 16.5346 14.1746 16.7513C14.53 17.0918 14.8354 17.361 15.0751 17.5461C15.1584 16.7387 15.546 15.9963 16.0897 15.4512C16.5866 14.9531 17.238 14.6072 17.9237 14.5563C17.7423 14.3296 17.4953 14.0524 17.1911 13.7349C16.9643 13.4983 16.7028 13.237 16.4166 12.9579ZM10.0274 13.5086L4.46664 19.0692L4.9307 19.5334L10.4655 13.9987L10.0274 13.5086ZM11.0287 14.6286L5.52738 20.1299L5.99125 20.594L11.4667 15.1187L11.0287 14.6286ZM18.0737 15.393C17.5863 15.3994 17.0926 15.6405 16.687 16.0472C16.1462 16.5893 15.8117 17.3996 15.9245 18.1894C16.1745 19.9398 17.0378 21.2742 18.2429 21.9973C19.3083 22.6365 20.6547 22.8106 22.1637 22.3247C21.0283 22.1367 19.9852 20.8854 19.9045 19.9505C20.4027 20.5511 21.0266 21.1011 21.7057 21.4388C21.2425 20.3804 21.2744 19.3082 21.1859 18.4237C21.1225 17.7898 21.0035 17.2526 20.6526 16.7755C20.3017 16.2983 19.6953 15.8473 18.5554 15.4674C18.4002 15.4156 18.2373 15.3905 18.0737 15.393ZM2.9635 18.7594L2.96336 18.7595L2.96345 18.7596L2.9635 18.7594ZM2.96345 18.7596L2.39547 20.1799L3.82009 21.6047L5.24064 21.0365L4.9308 20.7266L4.33398 20.13L3.87002 19.666L3.2733 19.0694L2.96345 18.7596ZM2.05431 21.0323L1.44531 22.5546L2.96772 21.9456L2.05431 21.0323Z" fill="white"/>
</svg>
