<svg width="66" height="56" viewBox="0 0 66 56" fill="none" xmlns="http://www.w3.org/2000/svg">
<path d="M37.0137 55L37.3369 53.75L43.7656 28.8516C42.4938 28.224 41.3239 27.3982 40.2617 26.3701C37.4921 23.6895 36.1445 20.1135 36.1445 15.7549C36.1445 11.3952 37.4922 7.7739 40.2461 4.9873L40.2617 4.97168C43.0025 2.31897 46.407 1.00004 50.4062 1C54.6226 1 58.1489 2.37314 60.8984 5.15527C63.647 7.93645 65 11.4985 65 15.7549C65 17.1236 64.9434 18.3875 64.8291 19.5439L64.8252 19.583L64.8184 19.6221C64.5865 20.9127 64.1857 22.414 63.624 24.1191C63.0641 25.8189 62.2829 27.9609 61.2852 30.541L52.5049 54.3457L52.2637 55H37.0137ZM1.86914 55L2.19238 53.75L8.62207 28.8525C7.3498 28.2249 6.17966 27.3985 5.11719 26.3701C2.34763 23.6895 1.00001 20.1135 1 15.7549C1 11.3952 2.34764 7.7739 5.10156 4.9873L5.11719 4.97168C7.85794 2.31899 11.2625 1.00007 15.2617 1C19.4781 1 23.0044 2.37315 25.7539 5.15527C28.5025 7.93646 29.8555 11.4985 29.8555 15.7549C29.8555 17.1236 29.7989 18.3875 29.6846 19.5439L29.6807 19.583L29.6738 19.6221C29.4419 20.9127 29.0412 22.414 28.4795 24.1191C28.0595 25.394 27.5153 26.9178 26.8486 28.6885L26.1416 30.541L17.3604 54.3457L17.1191 55H1.86914Z" stroke="#AAB2C7" stroke-width="2"/>
</svg>
