<svg width="19" height="19" viewBox="0 0 19 19" fill="none" xmlns="http://www.w3.org/2000/svg">
<path fill-rule="evenodd" clip-rule="evenodd" d="M17.264 0.878859C17.5426 1.15744 17.7637 1.48818 17.9144 1.85219C18.0652 2.2162 18.1429 2.60635 18.1429 3.00036C18.1429 3.39437 18.0652 3.78452 17.9144 4.14853C17.7637 4.51254 17.5426 4.84328 17.264 5.12186L15.731 6.65486C15.9995 7.21338 16.0878 7.84152 15.9837 8.45241C15.8796 9.0633 15.5883 9.62675 15.15 10.0649L14.435 10.7789C14.0599 11.1538 13.5513 11.3644 13.021 11.3644C12.4907 11.3644 11.9821 11.1538 11.607 10.7789L5.122 17.2639C4.84337 17.5426 4.51255 17.7637 4.14845 17.9145C3.78435 18.0653 3.3941 18.1429 3 18.1429H1.2C0.88174 18.1429 0.576516 18.0164 0.351472 17.7914C0.126428 17.5663 0 17.2611 0 16.9429V15.1429C8.40814e-05 14.7487 0.0778458 14.3584 0.228841 13.9943C0.379836 13.6302 0.601105 13.2994 0.88 13.0209L7.364 6.53586C6.98906 6.1608 6.77843 5.65219 6.77843 5.12186C6.77843 4.59153 6.98906 4.08291 7.364 3.70786L8.078 2.99386C8.51599 2.55542 9.07939 2.26391 9.69029 2.15965C10.3012 2.05538 10.9294 2.14352 11.488 2.41186L13.021 0.878859C13.2996 0.60023 13.6303 0.379206 13.9943 0.22841C14.3583 0.0776141 14.7485 0 15.1425 0C15.5365 0 15.9267 0.0776141 16.2907 0.22841C16.6547 0.379206 16.9854 0.60023 17.264 0.878859ZM8.779 7.94986L2.293 14.4359L2.206 14.5349C2.07238 14.7094 1.99998 14.9231 2 15.1429V16.1429H3L3.132 16.1339C3.34965 16.1049 3.55171 16.0051 3.707 15.8499L10.193 9.36486L8.779 7.94986ZM15.849 2.29286C15.6615 2.10539 15.4072 2.00007 15.142 2.00007C14.8768 2.00007 14.6225 2.10539 14.435 2.29286L12.321 4.40786C12.1316 4.59716 11.8748 4.7035 11.607 4.7035C11.3392 4.7035 11.0824 4.59716 10.893 4.40786C10.7073 4.22222 10.4555 4.11793 10.193 4.11793C9.93045 4.11793 9.67866 4.22222 9.493 4.40786L8.779 5.12186L13.021 9.36486L13.735 8.64986C13.9206 8.4642 14.0249 8.21241 14.0249 7.94986C14.0249 7.68731 13.9206 7.43552 13.735 7.24986C13.5457 7.06046 13.4394 6.80364 13.4394 6.53586C13.4394 6.26808 13.5457 6.01126 13.735 5.82186L15.85 3.70786C15.943 3.61499 16.0167 3.5047 16.0671 3.3833C16.1174 3.2619 16.1433 3.13177 16.1433 3.00036C16.1433 2.86894 16.1174 2.73882 16.0671 2.61742C16.0167 2.49602 15.942 2.38573 15.849 2.29286Z" fill="white"/>
</svg>
